<mxfile host="app.diagrams.net" modified="2021-07-30T12:30:33.520Z" agent="5.0 (Macintosh; Intel Mac OS X 10_15_7) AppleWebKit/537.36 (KHTML, like Gecko) Chrome/92.0.4515.115 Safari/537.36" etag="hNwL30h9JJIOE-s2SXI7" version="14.9.3" type="github">
  <diagram id="C5RBs43oDa-KdzZeNtuy" name="Page-1">
    <mxGraphModel dx="1291" dy="805" grid="1" gridSize="10" guides="1" tooltips="1" connect="1" arrows="1" fold="1" page="1" pageScale="1" pageWidth="1654" pageHeight="1169" math="0" shadow="0">
      <root>
        <mxCell id="WIyWlLk6GJQsqaUBKTNV-0" />
        <mxCell id="WIyWlLk6GJQsqaUBKTNV-1" parent="WIyWlLk6GJQsqaUBKTNV-0" />
        <mxCell id="WIyWlLk6GJQsqaUBKTNV-2" value="" style="rounded=0;html=1;jettySize=auto;orthogonalLoop=1;fontSize=11;endArrow=block;endFill=0;endSize=8;strokeWidth=1;shadow=0;labelBackgroundColor=none;edgeStyle=orthogonalEdgeStyle;" parent="WIyWlLk6GJQsqaUBKTNV-1" source="WIyWlLk6GJQsqaUBKTNV-3" edge="1">
          <mxGeometry relative="1" as="geometry">
            <mxPoint x="220" y="170" as="targetPoint" />
          </mxGeometry>
        </mxCell>
        <mxCell id="WIyWlLk6GJQsqaUBKTNV-3" value="Melohoz Skillset" style="rounded=1;whiteSpace=wrap;html=1;fontSize=12;glass=0;strokeWidth=1;shadow=0;" parent="WIyWlLk6GJQsqaUBKTNV-1" vertex="1">
          <mxGeometry x="160" y="80" width="120" height="40" as="geometry" />
        </mxCell>
        <mxCell id="WIyWlLk6GJQsqaUBKTNV-11" value="PowerShell for SysAdmins" style="rounded=1;whiteSpace=wrap;html=1;fontSize=12;glass=0;strokeWidth=1;shadow=0;" parent="WIyWlLk6GJQsqaUBKTNV-1" vertex="1">
          <mxGeometry x="160" y="170" width="120" height="40" as="geometry" />
        </mxCell>
        <mxCell id="zbTP_xQmZ9Iyh8UIeIxU-15" value="" style="edgeStyle=orthogonalEdgeStyle;rounded=0;orthogonalLoop=1;jettySize=auto;html=1;" edge="1" parent="WIyWlLk6GJQsqaUBKTNV-1" source="zbTP_xQmZ9Iyh8UIeIxU-0" target="zbTP_xQmZ9Iyh8UIeIxU-1">
          <mxGeometry relative="1" as="geometry" />
        </mxCell>
        <mxCell id="zbTP_xQmZ9Iyh8UIeIxU-0" value="Certifications" style="rounded=1;whiteSpace=wrap;html=1;fontSize=12;glass=0;strokeWidth=1;shadow=0;" vertex="1" parent="WIyWlLk6GJQsqaUBKTNV-1">
          <mxGeometry x="960" y="40" width="120" height="40" as="geometry" />
        </mxCell>
        <mxCell id="zbTP_xQmZ9Iyh8UIeIxU-14" style="edgeStyle=orthogonalEdgeStyle;rounded=0;orthogonalLoop=1;jettySize=auto;html=1;entryX=0;entryY=0.5;entryDx=0;entryDy=0;" edge="1" parent="WIyWlLk6GJQsqaUBKTNV-1" source="zbTP_xQmZ9Iyh8UIeIxU-1" target="zbTP_xQmZ9Iyh8UIeIxU-3">
          <mxGeometry relative="1" as="geometry">
            <Array as="points" />
          </mxGeometry>
        </mxCell>
        <mxCell id="zbTP_xQmZ9Iyh8UIeIxU-16" value="" style="edgeStyle=orthogonalEdgeStyle;rounded=0;orthogonalLoop=1;jettySize=auto;html=1;" edge="1" parent="WIyWlLk6GJQsqaUBKTNV-1" source="zbTP_xQmZ9Iyh8UIeIxU-1" target="zbTP_xQmZ9Iyh8UIeIxU-2">
          <mxGeometry relative="1" as="geometry" />
        </mxCell>
        <mxCell id="zbTP_xQmZ9Iyh8UIeIxU-1" value="CCNA" style="rounded=1;whiteSpace=wrap;html=1;fontSize=12;glass=0;strokeWidth=1;shadow=0;" vertex="1" parent="WIyWlLk6GJQsqaUBKTNV-1">
          <mxGeometry x="960" y="120" width="120" height="40" as="geometry" />
        </mxCell>
        <mxCell id="zbTP_xQmZ9Iyh8UIeIxU-17" value="" style="edgeStyle=orthogonalEdgeStyle;rounded=0;orthogonalLoop=1;jettySize=auto;html=1;" edge="1" parent="WIyWlLk6GJQsqaUBKTNV-1" source="zbTP_xQmZ9Iyh8UIeIxU-2" target="zbTP_xQmZ9Iyh8UIeIxU-4">
          <mxGeometry relative="1" as="geometry" />
        </mxCell>
        <mxCell id="zbTP_xQmZ9Iyh8UIeIxU-2" value="Okta Developer" style="rounded=1;whiteSpace=wrap;html=1;fontSize=12;glass=0;strokeWidth=1;shadow=0;" vertex="1" parent="WIyWlLk6GJQsqaUBKTNV-1">
          <mxGeometry x="960" y="200" width="120" height="40" as="geometry" />
        </mxCell>
        <mxCell id="zbTP_xQmZ9Iyh8UIeIxU-3" value="Cisco DevNet" style="rounded=1;whiteSpace=wrap;html=1;fontSize=12;glass=0;strokeWidth=1;shadow=0;" vertex="1" parent="WIyWlLk6GJQsqaUBKTNV-1">
          <mxGeometry x="1160" y="120" width="120" height="40" as="geometry" />
        </mxCell>
        <mxCell id="zbTP_xQmZ9Iyh8UIeIxU-10" style="edgeStyle=orthogonalEdgeStyle;rounded=0;orthogonalLoop=1;jettySize=auto;html=1;entryX=0.5;entryY=0;entryDx=0;entryDy=0;" edge="1" parent="WIyWlLk6GJQsqaUBKTNV-1" source="zbTP_xQmZ9Iyh8UIeIxU-4" target="zbTP_xQmZ9Iyh8UIeIxU-9">
          <mxGeometry relative="1" as="geometry">
            <Array as="points">
              <mxPoint x="1120" y="300" />
              <mxPoint x="1120" y="20" />
              <mxPoint x="1420" y="20" />
            </Array>
          </mxGeometry>
        </mxCell>
        <mxCell id="zbTP_xQmZ9Iyh8UIeIxU-4" value="Azure Security &lt;br&gt;AZ 500" style="rounded=1;whiteSpace=wrap;html=1;fontSize=12;glass=0;strokeWidth=1;shadow=0;" vertex="1" parent="WIyWlLk6GJQsqaUBKTNV-1">
          <mxGeometry x="960" y="280" width="120" height="40" as="geometry" />
        </mxCell>
        <mxCell id="zbTP_xQmZ9Iyh8UIeIxU-13" style="edgeStyle=orthogonalEdgeStyle;rounded=0;orthogonalLoop=1;jettySize=auto;html=1;exitX=0.5;exitY=1;exitDx=0;exitDy=0;entryX=0.5;entryY=0;entryDx=0;entryDy=0;" edge="1" parent="WIyWlLk6GJQsqaUBKTNV-1" source="zbTP_xQmZ9Iyh8UIeIxU-5" target="zbTP_xQmZ9Iyh8UIeIxU-6">
          <mxGeometry relative="1" as="geometry" />
        </mxCell>
        <mxCell id="zbTP_xQmZ9Iyh8UIeIxU-5" value="AZ 303 / 304" style="rounded=1;whiteSpace=wrap;html=1;fontSize=12;glass=0;strokeWidth=1;shadow=0;" vertex="1" parent="WIyWlLk6GJQsqaUBKTNV-1">
          <mxGeometry x="1360" y="200" width="120" height="40" as="geometry" />
        </mxCell>
        <mxCell id="zbTP_xQmZ9Iyh8UIeIxU-6" value="AZ 400" style="rounded=1;whiteSpace=wrap;html=1;fontSize=12;glass=0;strokeWidth=1;shadow=0;" vertex="1" parent="WIyWlLk6GJQsqaUBKTNV-1">
          <mxGeometry x="1360" y="280" width="120" height="40" as="geometry" />
        </mxCell>
        <mxCell id="zbTP_xQmZ9Iyh8UIeIxU-12" style="edgeStyle=orthogonalEdgeStyle;rounded=0;orthogonalLoop=1;jettySize=auto;html=1;exitX=0.5;exitY=1;exitDx=0;exitDy=0;entryX=0.5;entryY=0;entryDx=0;entryDy=0;" edge="1" parent="WIyWlLk6GJQsqaUBKTNV-1" source="zbTP_xQmZ9Iyh8UIeIxU-7" target="zbTP_xQmZ9Iyh8UIeIxU-5">
          <mxGeometry relative="1" as="geometry" />
        </mxCell>
        <mxCell id="zbTP_xQmZ9Iyh8UIeIxU-7" value="AZ 204" style="rounded=1;whiteSpace=wrap;html=1;fontSize=12;glass=0;strokeWidth=1;shadow=0;" vertex="1" parent="WIyWlLk6GJQsqaUBKTNV-1">
          <mxGeometry x="1360" y="120" width="120" height="40" as="geometry" />
        </mxCell>
        <mxCell id="zbTP_xQmZ9Iyh8UIeIxU-11" style="edgeStyle=orthogonalEdgeStyle;rounded=0;orthogonalLoop=1;jettySize=auto;html=1;exitX=0.5;exitY=1;exitDx=0;exitDy=0;entryX=0.5;entryY=0;entryDx=0;entryDy=0;" edge="1" parent="WIyWlLk6GJQsqaUBKTNV-1" source="zbTP_xQmZ9Iyh8UIeIxU-9" target="zbTP_xQmZ9Iyh8UIeIxU-7">
          <mxGeometry relative="1" as="geometry" />
        </mxCell>
        <mxCell id="zbTP_xQmZ9Iyh8UIeIxU-9" value="AZ 900" style="rounded=1;whiteSpace=wrap;html=1;fontSize=12;glass=0;strokeWidth=1;shadow=0;" vertex="1" parent="WIyWlLk6GJQsqaUBKTNV-1">
          <mxGeometry x="1360" y="40" width="120" height="40" as="geometry" />
        </mxCell>
      </root>
    </mxGraphModel>
  </diagram>
</mxfile>
